Coordinates
version=1
nRows=16
nColumns=33
inDegrees=yes

Units are S.I. units (second, meters, Newtons, ...)
Angles are in degrees.

endheader
time	ground_thorax_rot_x	ground_thorax_rot_y	ground_thorax_rot_z	ground_thorax_tx	ground_thorax_ty	ground_thorax_tz	clav_prot_r	clav_elev_r	scapula_abduction_r	scapula_elevation_r	scapula_upward_rot_r	scapula_winging_r	shoulder_elv_r	plane_of_elev_r	axial_rot_r	elbow_flexion_r	pro_sup_r	wrist_flex_r	wrist_dev_r	clav_prot_l	clav_elev_l	scapula_abduction_l	scapula_elevation_l	scapula_upward_rot_l	scapula_winging_l	shoulder_elv_l	plane_of_elev_l	axial_rot_l	elbow_flexion_l	pro_sup_l	wrist_flex_l	wrist_dev_l
      2.39000000	     28.83761949	     31.87082448	     41.44537596	     40.81357601	    776.41250692	    -41.36811959	     -0.11211907	     43.99470151	     41.07107045	     45.00000000	      6.25446375	  -2285.28852287	  -2269.99968781	    144.23661216	   -179.99999979	   1428.03034760	     69.87889549	     18.98705631	     13.90165748	    -13.08341055	    -45.00000000	    -36.30677096	     45.00000000	    -45.00000000	  -2059.31411698	    435.40999123	     24.32230405	     24.58820884	   1430.65916649	   -312.15787734	     11.10552136	    -16.79052173
      2.40000000	     28.79598404	     31.96729461	     41.52851754	     38.77926137	    776.33141499	    -41.44770852	      0.07856324	     44.14490985	     40.82610402	     45.00000000	      5.76971972	  -2285.03069785	  -2269.96302239	    144.21775776	   -179.99999979	   1428.04513727	     69.78757902	     19.02408345	     13.77033825	    -12.92149775	    -45.00000000	    -36.25304723	     45.00000000	    -45.00000000	  -2059.02329529	    435.42715772	     24.33999722	     24.09624329	   1430.62855943	   -311.93463046	     11.12088028	    -16.65282150
      2.41000000	     28.84354654	     31.99231768	     41.40669857	     36.72546231	    776.17681140	    -41.58669505	      0.21215324	     44.02664416	     40.64515429	     45.00000000	      5.51628243	  -2284.79908813	  -2269.85503697	    144.30467702	   -179.99999979	   1428.06871820	     70.06877574	     19.14297593	     13.59817422	    -12.84805549	    -45.00000000	    -36.26131204	     45.00000000	    -45.00000000	  -2058.90828673	    435.49280645	     24.24617557	     23.51039580	   1430.62831005	   -311.76656224	     11.09590479	    -16.75762556
      2.42000000	     28.87222999	     32.02636342	     41.34269700	     34.66248040	    776.03098983	    -41.74976432	      0.33279928	     44.08839539	     40.46216002	     45.00000000	      5.20110868	  -2284.66950716	  -2269.86649146	    144.28148459	   -179.99999979	   1428.07713958	     70.67189417	     19.22371784	     13.31948256	    -12.75102433	    -45.00000000	    -36.29004241	     45.00000000	    -45.00000000	  -2058.70737845	    435.53267163	     24.19180739	     23.02601976	   1430.62836437	   -311.60327686	     11.08449263	    -16.70147548
      2.43000000	     28.91495439	     32.05545849	     41.17803126	     32.60397752	    775.97559898	    -41.90108481	      0.44317488	     44.05501649	     40.27335459	     45.00000000	      5.02301550	  -2284.50764865	  -2269.80657782	    144.30927372	   -179.99999979	   1428.13234171	     71.36492579	     19.28307730	     13.10320670	    -12.63549749	    -45.00000000	    -36.27632033	     45.00000000	    -45.00000000	  -2058.57917701	    435.58453934	     24.16328340	     22.50315891	   1430.63646869	   -311.46952370	     11.06682749	    -16.75226488
      2.44000000	     28.95699473	     32.07631080	     41.06887714	     30.55666191	    776.09027420	    -42.00476417	      0.57100544	     44.05696918	     40.13997654	     45.00000000	      4.80702010	  -2284.37214017	  -2269.77993015	    144.29175499	   -179.99999979	   1428.22096993	     71.87350103	     19.23147493	     13.03262461	    -12.52345732	    -45.00000000	    -36.30286443	     45.00000000	    -45.00000000	  -2058.34805355	    435.64628169	     24.14022881	     22.07088678	   1430.63763731	   -311.34294477	     11.06236707	    -16.71592227
      2.45000000	     28.98310820	     32.06372951	     40.87533034	     28.46723560	    776.37549971	    -42.04277329	      0.70408904	     43.99760841	     40.05025927	     45.00000000	      4.66727230	  -2284.17175018	  -2269.66808738	    144.36373100	   -179.99999979	   1428.30567572	     71.99830231	     19.17996796	     13.10292358	    -12.39705156	    -45.00000000	    -36.37344540	     45.00000000	    -45.00000000	  -2058.23555203	    435.72151611	     24.04888373	     21.75367364	   1430.68180594	   -311.24357506	     11.02397731	    -16.75620599
      2.46000000	     29.01152045	     32.03323087	     40.69113763	     26.13028216	    776.61807306	    -42.06188820	      0.76907138	     43.98127396	     39.87070605	     45.00000000	      4.45306243	  -2283.93158709	  -2269.53955836	    144.40237993	   -179.99999979	   1428.31142244	     72.00424884	     19.35981839	     13.01097988	    -12.39013721	    -45.00000000	    -36.43724449	     45.00000000	    -45.00000000	  -2058.05681961	    435.79425128	     24.06813155	     21.39021278	   1430.68747217	   -311.13525244	     11.00736912	    -16.71137738
      2.47000000	     29.01378789	     32.02140743	     40.61439057	     23.77472036	    776.93875601	    -42.08074785	      0.95797114	     43.93775654	     39.75352063	     45.00000000	      4.15488535	  -2283.73885734	  -2269.41405646	    144.39894031	   -179.99999979	   1428.38366413	     71.98598913	     19.29305099	     13.11172903	    -12.21302524	    -45.00000000	    -36.47779473	     45.00000000	    -45.00000000	  -2057.91224476	    435.88118323	     23.95888499	     21.05021743	   1430.72439680	   -311.05102062	     10.97818896	    -16.75463816
      2.48000000	     29.04627825	     31.97604320	     40.52773992	     21.27788265	    777.27997608	    -42.08830942	      1.09255801	     43.88974810	     39.61326459	     45.00000000	      3.83820476	  -2283.44882600	  -2269.21706780	    144.48914461	   -179.99999979	   1428.41604681	     71.94963204	     19.53438269	     12.97945892	    -12.18270151	    -45.00000000	    -36.57846537	     45.00000000	    -45.00000000	  -2057.72212274	    435.93254400	     23.86748201	     20.83032257	   1430.72386085	   -310.96904369	     10.95636475	    -16.71250101
      2.49000000	     29.07954896	     31.90878156	     40.32418509	     18.79025142	    777.72058150	    -42.09710249	      1.28024710	     43.86480921	     39.42121396	     45.00000000	      3.58947174	  -2283.24013962	  -2269.12940310	    144.49692970	   -179.99999979	   1428.46015948	     71.93697253	     19.61420928	     13.08289207	    -12.02685783	    -45.00000000	    -36.61108162	     45.00000000	    -45.00000000	  -2057.57591905	    436.02814303	     23.90136667	     20.53246334	   1430.73398012	   -310.90501246	     10.95945525	    -16.75791006
      2.50000000	     29.13062433	     31.82610142	     40.17695608	     16.29932360	    778.25797294	    -42.10491360	      1.39899972	     43.79864966	     39.25099828	     45.00000000	      3.38526786	  -2282.99684609	  -2268.99821000	    144.50762060	   -179.99999979	   1428.31715196	     71.90447578	     19.80126476	     13.05278745	    -11.96017636	    -45.00000000	    -36.58878176	     45.00000000	    -45.00000000	  -2057.37509369	    436.07418659	     23.96237905	     20.29880785	   1430.76873647	   -310.85582024	     10.96394895	    -16.75402932
      2.51000000	     29.13528567	     31.69649432	     40.04442040	     13.85744815	    778.90853204	    -42.11493200	      1.53386551	     43.90268689	     39.18617437	     45.00000000	      3.23071470	  -2282.82488961	  -2268.89106285	    144.49494586	   -179.99999979	   1428.32463917	     71.88209581	     19.64886431	     13.24088781	    -11.81303514	    -45.00000000	    -36.78319575	     45.00000000	    -45.00000000	  -2057.19186617	    436.14567499	     23.84422435	     19.94570501	   1430.85329079	   -310.83718294	     10.92843635	    -16.80962010
      2.52000000	     29.05237048	     31.76757956	     40.13141184	     11.43028041	    779.66196866	    -42.12011095	      1.69073172	     43.64093208	     39.11471602	     45.00000000	      2.92279604	  -2282.74863208	  -2268.67176512	    144.49066677	   -179.99999979	   1428.32896028	     71.75031825	     19.77242262	     13.05599954	    -11.65767445	    -45.00000000	    -36.80703531	     45.00000000	    -45.00000000	  -2057.03485956	    436.27364826	     23.73324195	     19.82968575	   1430.84721596	   -310.82320758	     10.93147815	    -16.75804697
      2.53000000	     29.17432977	     31.60449249	     39.68412651	      9.01785087	    780.50725698	    -42.12400933	      1.82098765	     43.82756635	     38.89767428	     45.00000000	      2.93023777	  -2282.53755571	  -2268.65453825	    144.50536120	   -179.99999979	   1428.37972233	     71.63275913	     19.78742429	     13.35133031	    -11.52667514	    -45.00000000	    -36.91910488	     45.00000000	    -45.00000000	  -2056.84386521	    436.20791523	     23.91672217	     19.55005438	   1430.88168939	   -310.83641730	     10.99625842	    -16.88105244
      2.54000000	     29.03083965	     31.59646726	     39.83424315	      6.60210636	    781.44297303	    -42.13218647	      1.86416375	     43.43042245	     39.05279521	     45.00000000	      2.89402422	  -2282.64840405	  -2268.34755192	    144.49474640	   -179.99999979	   1428.24022142	     71.47130557	     19.75479066	     13.09903060	    -11.47745013	    -45.00000000	    -37.00351805	     45.00000000	    -45.00000000	  -2056.75369879	    436.48194339	     23.68663579	     19.44204034	   1430.84771596	   -310.85657226	     10.95189719	    -16.75102151
